<?xml version="1.0" standalone="no"?>
<!DOCTYPE svg PUBLIC "-//W3C//DTD SVG 20010904//EN"
 "http://www.w3.org/TR/2001/REC-SVG-20010904/DTD/svg10.dtd">
<svg version="1.0" xmlns="http://www.w3.org/2000/svg"
 width="400.000000pt" height="400.000000pt" viewBox="0 0 400.000000 400.000000"
 preserveAspectRatio="xMidYMid meet">
<metadata>
Created by potrace 1.14, written by Peter Selinger 2001-2017
</metadata>
<g transform="translate(0.000000,400.000000) scale(0.100000,-0.100000)"
fill="#000000" stroke="none">
<path d="M0 2931 l0 -1069 558 -6 c624 -7 702 -11 702 -32 0 -12 -26 -13 -167
-8 -251 9 -1066 21 -1080 16 -10 -3 -13 -89 -13 -383 l0 -379 38 0 c20 0 75 5
122 10 47 5 173 17 280 25 312 24 558 45 650 55 47 5 130 12 185 15 55 4 167
13 249 21 190 18 216 18 216 0 0 -8 -4 -18 -10 -21 -10 -6 -240 -30 -445 -45
-71 -5 -202 -16 -290 -24 -88 -8 -232 -20 -320 -26 -88 -6 -194 -15 -235 -20
-41 -5 -133 -14 -205 -20 -72 -6 -154 -13 -182 -16 l-53 -5 0 -510 0 -510 43
3 c41 3 42 4 47 43 5 37 13 46 68 71 2 1 7 33 12 70 13 95 31 186 42 207 12
23 64 23 76 -1 11 -20 9 -46 -18 -201 -13 -77 -16 -119 -10 -132 6 -10 10 -27
10 -38 0 -21 4 -21 235 -21 l234 0 -34 68 c-19 37 -35 71 -35 76 0 4 11 6 25
4 13 -3 26 0 28 6 9 24 42 -12 54 -60 18 -71 33 -94 60 -94 27 0 27 -1 7 50
-9 22 -13 47 -10 56 13 33 -4 62 -40 69 -41 7 -76 38 -68 60 9 22 23 19 50
-10 29 -32 64 -34 64 -3 0 12 -8 30 -17 40 -19 21 -21 60 -9 132 7 43 6 48 -9
42 -14 -5 -15 0 -9 42 8 56 54 160 81 184 26 24 92 50 109 44 12 -5 11 -12 -4
-43 -36 -72 -59 -153 -67 -238 -2 -22 -8 -85 -14 -140 -6 -55 -9 -125 -5 -155
3 -31 1 -72 -4 -93 l-10 -37 161 0 c98 0 156 4 148 9 -15 9 -27 65 -37 168 -4
35 -11 63 -16 63 -10 0 -7 18 39 185 38 138 80 233 135 306 19 24 44 61 57 81
28 47 67 78 97 78 13 0 33 10 44 23 21 22 22 22 36 3 12 -18 15 -18 31 -4 10
9 36 19 58 23 22 4 45 11 52 16 7 6 18 7 30 1 46 -23 92 -41 138 -55 82 -24
105 -28 105 -18 0 15 -22 62 -41 91 -9 14 -19 39 -20 55 -4 29 -3 30 44 33 46
3 52 0 90 -37 22 -23 48 -41 57 -41 9 0 21 -5 27 -11 26 -26 20 14 -12 80 -19
39 -35 74 -35 77 0 3 -15 29 -34 59 -19 29 -31 57 -28 61 4 4 2 4 -4 1 -16 -9
-48 61 -45 98 4 45 15 58 68 85 26 14 50 28 51 33 2 4 10 7 18 7 8 0 14 5 14
10 0 6 5 10 10 10 6 0 26 14 45 32 39 35 57 87 51 144 -3 22 -2 31 0 22 7 -25
21 -22 49 8 25 27 25 44 0 44 -8 0 -21 10 -29 22 -15 21 -16 21 -17 3 0 -18
-1 -17 -10 3 -5 13 -6 29 -2 34 4 7 1 8 -7 3 -9 -5 -11 -1 -6 16 3 13 3 19 1
13 -3 -6 -17 -9 -30 -6 -19 3 -25 0 -25 -12 0 -10 -4 -15 -9 -12 -5 4 -7 -4
-3 -16 5 -21 6 -21 13 -2 6 15 8 15 8 3 1 -9 -6 -22 -14 -29 -8 -7 -15 -18
-15 -24 0 -7 4 -6 9 2 5 9 8 3 7 -17 -1 -32 -16 -44 -17 -13 0 14 -2 13 -11
-5 -9 -19 -58 -39 -58 -24 0 15 -50 10 -59 -7 -8 -14 -11 -14 -12 -2 -1 8 -1
21 0 28 1 6 -3 12 -9 12 -5 0 -10 7 -10 16 0 11 -6 14 -20 9 -22 -7 -26 5 -8
23 9 9 8 12 -5 12 -9 0 -26 -9 -37 -20 -20 -20 -20 -20 -20 1 0 17 -3 19 -14
10 -10 -8 -16 -9 -21 -1 -3 5 -4 10 -1 10 3 0 -2 8 -11 18 -10 11 -21 17 -24
16 -4 -2 -15 6 -25 19 -13 14 -14 18 -3 9 12 -9 24 -9 40 -3 13 5 18 10 11 10
-6 1 -11 4 -10 9 3 15 -34 91 -48 96 -8 3 -14 12 -14 20 0 11 -7 9 -25 -8 -30
-28 -32 -66 -6 -90 16 -14 17 -21 8 -31 -7 -7 -16 -11 -21 -8 -4 3 -11 1 -15
-5 -4 -7 -18 -5 -41 5 -34 15 -34 15 -12 26 12 5 22 14 22 18 0 14 -49 22 -94
16 -41 -6 -43 -5 -54 28 -13 35 -3 64 50 136 21 28 68 41 68 19 0 -13 58 -37
109 -44 23 -3 46 -8 51 -11 14 -9 47 51 49 92 1 7 11 17 22 24 15 8 19 8 15 0
-4 -6 -3 -11 3 -11 20 0 21 19 1 30 -11 6 -20 15 -20 21 0 6 9 5 23 -2 l22
-12 -20 23 -20 24 25 -17 c31 -21 47 -22 30 -2 -24 29 -4 25 46 -9 27 -19 59
-47 71 -63 12 -16 38 -45 57 -65 20 -21 36 -46 36 -58 0 -22 15 -27 24 -7 5 9
7 9 12 -1 3 -6 10 -10 15 -7 8 5 39 -52 53 -97 8 -27 26 -22 26 7 0 14 -4 25
-10 25 -5 0 -10 5 -10 11 0 6 9 8 20 4 15 -5 20 -2 20 13 0 11 7 22 15 26 8 3
15 1 15 -4 0 -6 -4 -10 -9 -10 -22 0 -15 -39 16 -84 18 -26 33 -42 33 -35 0 8
9 25 20 39 l20 25 0 -23 c0 -13 4 -20 10 -17 6 3 10 15 10 26 0 10 5 19 10 19
13 0 -11 -60 -40 -100 -11 -15 -20 -33 -20 -40 0 -6 -4 -9 -9 -6 -5 3 -14 -1
-20 -8 -8 -9 -8 -17 -2 -20 5 -3 12 0 15 6 7 17 -4 -87 -14 -132 -4 -19 -11
-44 -16 -54 -5 -14 -4 -17 4 -12 8 4 16 -3 22 -19 13 -34 13 -98 0 -90 -6 3
-15 -6 -20 -20 -12 -32 -12 -38 -2 -31 17 10 51 -32 67 -84 37 -114 51 -130
155 -181 88 -44 230 -155 230 -180 0 -16 39 -49 58 -49 17 0 134 -111 200
-190 46 -55 159 -221 228 -337 49 -82 67 -123 83 -192 12 -49 21 -105 21 -125
0 -29 4 -36 20 -36 18 0 19 5 13 48 -6 43 -5 46 11 33 25 -21 30 -7 19 57 -6
33 -7 66 -2 79 12 33 -17 258 -43 323 -58 148 -133 269 -205 330 l-38 32 34
-6 c18 -3 42 -6 52 -6 26 0 216 -194 271 -277 76 -113 139 -223 188 -326 25
-53 50 -94 55 -90 4 5 5 2 1 -5 -8 -13 13 -82 26 -82 4 0 5 -6 2 -14 -3 -8 0
-32 6 -55 l11 -41 109 0 110 0 0 660 0 660 -29 0 c-15 0 -84 -4 -152 -9 -68
-6 -162 -12 -209 -16 -47 -3 -182 -12 -300 -20 -118 -8 -258 -17 -310 -19 -52
-3 -197 -11 -323 -17 -125 -7 -230 -9 -234 -5 -4 3 0 14 9 23 13 13 59 19 230
29 117 7 276 18 353 24 77 5 300 21 495 35 195 13 381 27 413 31 l57 6 0 339
0 340 -105 -7 c-91 -6 -105 -5 -105 9 0 16 21 21 143 32 57 6 67 9 67 26 0 10
-6 19 -12 19 -21 0 -826 -49 -1071 -65 -265 -17 -277 -18 -259 -6 7 4 34 9 60
9 26 1 146 9 267 17 262 18 307 21 625 40 135 8 278 17 317 21 l73 6 0 919 0
919 -2000 0 -2000 0 0 -1069z m2110 -503 c0 -6 -6 -5 -15 2 -8 7 -15 14 -15
16 0 2 7 1 15 -2 8 -4 15 -11 15 -16z m235 -478 c3 -5 2 -10 -4 -10 -5 0 -13
5 -16 10 -3 6 -2 10 4 10 5 0 13 -4 16 -10z m-1552 -7 c-7 -2 -19 -2 -25 0 -7
3 -2 5 12 5 14 0 19 -2 13 -5z m550 -10 c-45 -2 -122 -2 -170 0 -48 1 -11 3
82 3 94 0 133 -2 88 -3z m1252 -53 c3 -5 1 -10 -4 -10 -6 0 -11 5 -11 10 0 6
2 10 4 10 3 0 8 -4 11 -10z m-10 -40 c4 -6 1 -26 -5 -45 -6 -19 -12 -48 -12
-64 -1 -17 -6 -27 -12 -25 -15 6 -17 114 -4 132 13 15 25 16 33 2z m-394 -48
c0 -4 2 -17 5 -29 2 -13 -1 -23 -6 -23 -6 0 -10 5 -10 11 0 8 -4 8 -12 1 -10
-8 -13 -1 -13 28 -1 34 1 37 17 29 10 -5 18 -13 19 -17z m-453 -103 c25 -10
27 -17 8 -41 -14 -19 -46 -25 -46 -9 0 5 -16 15 -35 22 -35 13 -46 33 -22 42
13 6 60 -1 95 -14z m436 5 c3 -8 2 -12 -4 -9 -6 3 -10 10 -10 16 0 14 7 11 14
-7z m-867 -26 c-3 -8 -6 -5 -6 6 -1 11 2 17 5 13 3 -3 4 -12 1 -19z m2153 -38
c0 -5 -15 -11 -32 -14 -50 -8 -635 -45 -783 -51 -217 -7 -81 12 245 35 162 12
340 25 395 29 146 12 175 12 175 1z m-2016 -135 c47 4 76 3 76 -3 0 -5 -32
-13 -71 -16 -70 -7 -99 1 -99 28 0 6 4 5 9 -3 7 -11 25 -12 85 -6z m-403 -732
c-24 -42 -32 -48 -57 -45 -16 2 -34 8 -40 13 -6 5 -13 6 -17 3 -3 -3 -22 -9
-42 -14 -31 -7 -34 -6 -24 7 21 24 66 43 106 43 21 0 52 9 68 19 17 11 31 20
32 20 1 1 -10 -20 -26 -46z m2934 -503 c4 -6 -7 -10 -27 -9 -31 1 -32 1 -8 9
14 4 26 8 27 9 1 1 5 -3 8 -9z m-50 -61 c-59 -28 -112 -39 -100 -19 3 6 0 10
-7 11 -7 0 -4 4 7 8 11 5 25 4 33 -2 7 -5 16 -7 19 -3 13 12 -20 25 -52 20
-23 -3 -25 -2 -7 4 13 4 56 8 95 9 l72 1 -60 -29z m52 -145 c-3 -3 -12 -4 -19
-1 -8 3 -5 6 6 6 11 1 17 -2 13 -5z"/>
<path d="M1776 1991 c-4 -7 -5 -15 -2 -18 9 -9 19 4 14 18 -4 11 -6 11 -12 0z"/>
<path d="M2154 1877 c-9 -24 -1 -34 22 -28 20 6 20 7 3 25 -17 17 -19 17 -25
3z"/>
<path d="M2270 1878 c0 -9 5 -20 11 -23 17 -11 18 -2 3 19 -12 17 -14 17 -14
4z"/>
<path d="M2016 1775 c-9 -26 -7 -32 5 -12 6 10 9 21 6 23 -2 3 -7 -2 -11 -11z"/>
<path d="M2076 1747 c3 -10 9 -15 12 -12 3 3 0 11 -7 18 -10 9 -11 8 -5 -6z"/>
<path d="M2056 1721 c-4 -7 -5 -15 -2 -18 9 -9 19 4 14 18 -4 11 -6 11 -12 0z"/>
<path d="M2511 998 c0 -15 -10 -50 -20 -78 -11 -27 -15 -48 -11 -45 16 10 42
93 37 121 l-4 29 -2 -27z"/>
<path d="M2156 968 c9 -31 12 -34 25 -21 15 15 4 43 -16 43 -12 0 -15 -6 -9
-22z"/>
<path d="M1585 850 c-8 -12 4 -405 12 -397 2 3 6 90 8 194 3 178 -2 232 -20
203z"/>
<path d="M1295 474 c-14 -45 -17 -77 -12 -152 11 -186 48 -116 43 81 -2 64 -5
120 -8 122 -3 3 -13 -20 -23 -51z"/>
<path d="M2586 261 c-4 -5 4 -7 16 -4 19 4 20 3 8 -6 -12 -9 -10 -10 11 -9 17
1 25 7 22 15 -6 15 -49 18 -57 4z"/>
<path d="M1851 204 c-1 -12 -7 -26 -13 -31 -18 -14 -94 -33 -153 -38 -175 -15
-185 -20 -185 -92 l0 -43 333 0 c216 0 327 4 317 10 -8 5 -24 10 -36 10 -11 0
-29 9 -40 21 -10 12 -32 28 -49 37 -29 16 -36 18 -54 21 -5 0 -26 23 -47 51
-21 28 -44 50 -50 50 -7 0 -15 6 -17 13 -3 6 -6 2 -6 -9z"/>
<path d="M2205 10 c-3 -5 3 -10 15 -10 12 0 18 5 15 10 -3 6 -10 10 -15 10 -5
0 -12 -4 -15 -10z"/>
</g>
</svg>
